<svg xmlns="http://www.w3.org/2000/svg" viewBox="0 0 511.996 511.996" xml:space="preserve"><path d="M213.347 341.329c0 6.4 5.653 11.52 12.267 10.56 5.333-.747 9.067-5.547 9.067-10.88v-64.64c75.52-8.853 138.56-79.36 138.667-158.933 0-5.973-4.693-10.773-10.667-10.773h-288c-5.867 0-10.667 4.8-10.667 10.667 0 83.413 69.227 156.48 149.333 159.68zM85.773 127.996h265.813c-5.653 69.333-65.28 128-132.907 128s-127.252-58.667-132.906-128M266.36 490.662h-31.68v-53.013c0-5.333-3.84-10.133-9.067-10.88-6.613-.96-12.267 4.16-12.267 10.56v53.333h-31.68c-5.333 0-10.133 3.84-10.88 9.067-.96 6.613 4.16 12.267 10.56 12.267h85.333c6.4 0 11.52-5.653 10.56-12.267-.746-5.227-5.546-9.067-10.879-9.067"/><path d="M422.413 61.329C374.093 5.436 269.027-.964 210.787.102c-14.507.32-34.027 2.987-44.16 14.293-4.8 5.227-7.147 12.267-6.507 19.307.533 9.493 5.013 18.347 12.267 24.427 12.8 10.88 35.2 14.827 68.16 11.947 45.547-3.947 81.28-29.653 90.027-36.587 30.08 8 57.813 21.013 75.733 41.707s23.893 46.507 18.56 79.04c-20.053 120.853-143.787 133.333-149.013 133.76-5.867.213-10.453 5.227-10.24 11.093.213 5.867 5.227 10.453 11.093 10.24h.96c1.493-.107 145.387-14.187 168.107-151.467 6.506-38.72-1.387-71.146-23.361-96.533m-183.68-12.587c-33.28 2.88-46.933-2.24-52.587-6.933-2.88-2.453-4.693-5.973-4.8-9.813-.213-1.173.213-2.453 1.067-3.307 3.733-4.053 15.253-7.04 28.8-7.253 3.733-.107 7.573-.107 11.627-.107 22.827 0 50.88 1.28 78.933 5.973-14.613 8.64-37.226 19.307-63.04 21.44m6.187 330.027c-68.053-4.16-81.387-20.907-83.947-27.947-5.44-14.613 13.653-33.707 13.867-33.92 4.267-4.053 4.373-10.88.32-15.04-4.053-4.267-10.88-4.373-15.04-.32-1.173 1.173-29.44 28.693-19.2 56.64 8.96 24.533 42.56 38.187 102.72 41.92 58.347 3.52 72.213 18.24 75.413 26.773 5.76 15.68-13.12 38.613-20.16 45.44-4.16 4.16-4.16 10.987.107 15.04 4.053 4.053 10.56 4.16 14.72.32 3.84-3.627 36.907-36.693 25.387-68.16-8.96-24.106-39.787-37.333-94.187-40.746"/></svg>